<?xml version="1.0"?>
<svg version="1.1" xmlns="http://www.w3.org/2000/svg" width="400px" height="180px" style="border: dashed 2px #aaa"><path fill="#7caccf" d="M24.84228515625,142.5322265625q0-2.20458984375,1.51171875-2.802978515625t3.275390625-0.598388671875q3.08642578125,0,5.22802734375,2.771484375t4.062744140625,6.078369140625t3.810791015625,6.078369140625t4.47216796875,2.771484375q1.95263671875,0,3.558837890625-0.976318359375t2.771484375-2.45654296875t1.795166015625-3.33837890625t0.6298828125-3.684814453125q0-4.787109375-1.921142578125-9.88916015625t-4.9130859375-10.51904296875t-6.330322265625-11.0859375t-6.298828125-11.52685546875t-4.9130859375-11.936279296875t-1.95263671875-12.251220703125q0-9.25927734375,5.54296875-14.361328125t14.61328125-5.10205078125q3.08642578125,0,6.23583984375,0.8818359375t5.794921875,2.6455078125t4.314697265625,4.34619140625t1.669189453125,6.046875q0,1.1337890625-1.669189453125,1.480224609375t-2.425048828125,0.346435546875q-1.1337890625,0-2.45654296875-0.283447265625t-1.70068359375-1.543212890625t-1.07080078125-2.8974609375t-1.732177734375-3.054931640625t-2.45654296875-2.45654296875t-3.117919921875-1.039306640625q-2.83447265625,0-4.818603515625,1.165283203125t-3.21240234375,3.117919921875t-1.82666015625,4.377685546875t-0.598388671875,5.007568359375q0,6.046875,2.07861328125,12.188232421875t5.1650390625,12.2197265625t6.708251953125,11.999267578125t6.708251953125,11.52685546875t5.1650390625,10.9599609375t2.07861328125,10.14111328125q0,4.283203125-2.015625,7.24365234375t-5.10205078125,4.818603515625t-6.834228515625,2.70849609375t-7.338134765625,0.850341796875q-3.84228515625,0-7.87353515625-1.543212890625t-7.24365234375-4.251708984375t-5.291015625-6.330322265625t-2.07861328125-7.842041015625z M81.510952148437,131.00537109375q0-4.283203125,1.165283203125-8.25146484375t3.495849609375-7.086181640625t5.826416015625-4.97607421875t8.093994140625-1.858154296875q2.83447265625,0,6.267333984375,0.850341796875t6.456298828125,2.51953125t5.0390625,4.251708984375t2.015625,5.9208984375q0,1.57470703125-0.535400390625,2.3935546875t-2.173095703125,0.81884765625l-0.69287109375-0.1259765625q1.82666015625,4.9130859375,3.1494140625,10.078125t2.58251953125,10.330078125q0.50390625,1.0078125,0.755859375,1.795166015625t0.251953125,1.543212890625q0,1.0078125-0.56689453125,1.669189453125t-1.480224609375,0.976318359375t-1.8896484375,0.44091796875t-1.732177734375,0.1259765625q-2.70849609375,0-4.062744140625-0.94482421875t-1.95263671875-2.58251953125t-0.724365234375-3.684814453125t-0.50390625-4.125732421875q-0.755859375,2.45654296875-1.984130859375,4.787109375t-2.8974609375,4.188720703125t-3.936767578125,2.96044921875t-5.10205078125,1.102294921875q-4.1572265625,0-6.99169921875-2.3935546875t-4.566650390625-5.889404296875t-2.51953125-7.464111328125t-0.787353515625-7.36962890625z M90.455288085937,130.12353515625q0,2.33056640625,0.31494140625,4.9130859375t1.039306640625,5.10205078125t1.858154296875,4.755615234375t2.83447265625,3.936767578125q3.08642578125-3.33837890625,4.566650390625-8.12548828125t2.6455078125-9.227783203125t2.6455078125-7.62158203125t4.566650390625-3.180908203125q1.95263671875,0,3.275390625,0.69287109375q-0.6298828125-1.57470703125-2.07861328125-3.054931640625t-3.243896484375-2.70849609375t-3.71630859375-2.015625t-3.621826171875-0.787353515625q-0.50390625,0-1.165283203125,0.157470703125t-1.039306640625,0.031494140625q-2.58251953125,0.755859375-4.251708984375,2.614013671875t-2.70849609375,4.377685546875t-1.480224609375,5.1650390625t-0.44091796875,4.97607421875z M136.10100585937,133.587890625q0-4.4091796875,0.976318359375-10.39306640625t3.306884765625-11.337890625t6.141357421875-9.101806640625t9.605712890625-3.747802734375q5.4169921875,0,8.12548828125,3.117919921875t2.70849609375,8.408935546875q0,3.46435546875-1.291259765625,7.590087890625t-3.684814453125,7.810546875t-5.6689453125,6.141357421875t-7.306640625,2.45654296875l-1.6376953125-0.1259765625q0,1.70068359375,0.50390625,4.566650390625t1.480224609375,5.700439453125t2.51953125,4.97607421875t3.747802734375,2.1416015625q3.21240234375,0,6.1728515625-2.58251953125t5.60595703125-5.73193359375t4.9130859375-5.73193359375t4.1572265625-2.58251953125q1.0078125,0,2.07861328125,0.31494140625t1.19677734375,1.763671875q0,0.8818359375-0.472412109375,1.44873046875t-0.850341796875,1.259765625q-1.95263671875,3.33837890625-4.251708984375,6.36181640625t-5.196533203125,5.47998046875t-6.330322265625,3.873779296875t-7.590087890625,1.417236328125q-5.4169921875,0-9.00732421875-1.921142578125t-5.794921875-5.1650390625t-3.180908203125-7.49560546875t-0.976318359375-8.912841796875z M147.37590820312,128.80078125l1.763671875,1.57470703125q1.259765625,1.1337890625,2.51953125,0.50390625t2.267578125-2.299072265625t1.858154296875-4.125732421875t1.51171875-5.0390625t0.976318359375-5.0390625t0.31494140625-4.09423828125l0-2.1416015625t-0.18896484375-2.267578125t-0.661376953125-1.795166015625t-1.480224609375-0.913330078125q-0.31494140625-0.06298828125-0.56689453125-0.06298828125q-2.1416015625,0-3.6533203125,2.70849609375q-1.6376953125,3.0234375-2.6455078125,7.338134765625t-1.44873046875,8.849853515625t-0.56689453125,6.802734375z M188.73842285156,156.57861328125l1.32275390625-1.57470703125q-0.251953125-10.58203125-0.56689453125-21.10107421875t-0.31494140625-20.912109375q0-12.91259765625,1.543212890625-24.974853515625t3.054931640625-24.722900390625q0.1259765625-0.755859375,0.724365234375-1.228271484375t1.480224609375-0.787353515625t1.795166015625-0.44091796875t1.669189453125-0.1259765625q1.0078125,0,2.51953125,0.3779296875t3.0234375,2.20458984375q0,0.6298828125,0.094482421875,1.102294921875t0.094482421875,1.102294921875q0,4.787109375-1.291259765625,10.26708984375t-1.732177734375,10.51904296875q-0.50390625,6.1728515625-0.69287109375,12.2197265625t-0.18896484375,12.28271484375l0.1259765625,5.54296875q1.259765625-1.57470703125,3.59033203125-4.03125t5.0390625-4.755615234375t5.4169921875-3.936767578125t4.9130859375-1.6376953125q3.33837890625,0,4.629638671875,1.8896484375t1.291259765625,4.97607421875q0,2.83447265625-1.228271484375,5.9208984375t-3.21240234375,6.015380859375t-4.503662109375,5.259521484375t-4.97607421875,3.46435546875q3.33837890625,4.1572265625,6.834228515625,7.9365234375t7.653076171875,7.11767578125l0,1.44873046875q-0.1259765625,0.6298828125-0.787353515625,0.94482421875t-1.44873046875,0.50390625t-1.543212890625,0.283447265625t-1.259765625,0.094482421875q-3.08642578125,0-5.952392578125-1.82666015625t-5.35400390625-4.47216796875t-4.692626953125-5.60595703125t-4.03125-5.1650390625q0.3779296875,7.24365234375,0.850341796875,14.455810546875t0.472412109375,14.455810546875q0,0.8818359375-0.787353515625,1.480224609375t-1.82666015625,0.913330078125t-2.110107421875,0.44091796875t-1.763671875,0.1259765625q-3.71630859375,0-5.259521484375-1.354248046875t-2.614013671875-4.692626953125z M201.65102050781,126.9111328125q1.57470703125,0,3.747802734375-1.354248046875t4.503662109375-3.369873046875t4.34619140625-4.251708984375t3.243896484375-4.251708984375t1.228271484375-3.243896484375t-1.70068359375-1.102294921875q-0.6298828125,0-2.58251953125,1.82666015625t-4.34619140625,4.47216796875t-4.787109375,5.73193359375t-3.6533203125,5.54296875z M238.47837890625,132.2021484375q0-3.59033203125,0.913330078125-7.401123046875t2.8974609375-6.86572265625t5.007568359375-4.97607421875t7.306640625-1.921142578125q3.21240234375,0,6.771240234375,1.102294921875t6.519287109375,3.1494140625t4.818603515625,5.007568359375t1.858154296875,6.61376953125q0,4.4091796875-1.606201171875,8.37744140625t-4.503662109375,7.086181640625t-6.771240234375,4.9130859375t-8.408935546875,1.795166015625q-3.71630859375,0-6.48779296875-1.354248046875t-4.629638671875-3.621826171875t-2.771484375-5.35400390625t-0.913330078125-6.55078125z M247.73765625,132.076171875q0,1.1337890625,0.346435546875,3.33837890625t1.039306640625,4.314697265625t1.795166015625,3.6533203125t2.677001953125,1.417236328125q3.33837890625-0.3779296875,5.511474609375-2.173095703125t3.52734375-4.377685546875t1.8896484375-5.60595703125t0.535400390625-5.73193359375q0-3.46435546875-1.354248046875-5.794921875t-4.440673828125-3.779296875q0,0.1259765625,0.1259765625,0.1259765625t0.1259765625-0.1259765625l-1.57470703125-0.3779296875q-0.6298828125-0.251953125-1.543212890625-0.56689453125t-1.795166015625-1.3857421875q-2.45654296875,0.8818359375-3.810791015625,2.267578125t-2.047119140625,3.369873046875t-0.850341796875,4.755615234375t-0.157470703125,6.6767578125z M286.36018066406,115.22680664062q-0.157470703125-2.110107421875,0.251953125-3.873779296875t1.6376953125-2.865966796875t3.936767578125-1.102294921875q0.6298828125,0,1.543212890625,0.157470703125t1.795166015625,0.409423828125t1.480224609375,0.755859375t0.598388671875,1.3857421875l0,7.11767578125q2.45654296875-2.83447265625,5.35400390625-4.062744140625t6.61376953125-1.228271484375q2.83447265625,0,5.60595703125,1.291259765625t5.22802734375,3.432861328125t4.251708984375,4.72412109375t2.614013671875,5.1650390625q0.50390625-2.33056640625,1.1337890625-5.700439453125t1.858154296875-6.456298828125t3.243896484375-5.291015625t5.35400390625-2.20458984375q3.59033203125,0,6.046875,2.58251953125t3.999755859375,6.708251953125t2.33056640625,9.227783203125t1.165283203125,10.078125t0.3779296875,9.290771484375l0,6.771240234375q0,0.755859375-0.56689453125,1.228271484375t-1.417236328125,0.724365234375t-1.763671875,0.31494140625t-1.417236328125,0.06298828125q-1.95263671875,0-3.558837890625-0.598388671875t-1.606201171875-3.054931640625l0-5.6689453125t-0.1259765625-7.338134765625t-0.44091796875-7.87353515625t-0.81884765625-7.149169921875t-1.291259765625-5.1650390625t-1.921142578125-2.015625q-1.57470703125,0-2.267578125,1.763671875t-1.165283203125,4.47216796875t-0.724365234375,5.73193359375t-0.69287109375,5.73193359375t-1.417236328125,4.440673828125t-2.677001953125,1.732177734375q-1.82666015625,0-3.21240234375-1.732177734375t-2.739990234375-4.314697265625t-2.70849609375-5.54296875t-2.991943359375-5.54296875q-1.6376953125-2.6455078125-3.52734375-4.283203125q-1.70068359375-1.57470703125-3.84228515625-1.51171875l-0.31494140625,0q-2.83447265625,0.1259765625-4.440673828125,2.047119140625t-2.45654296875,4.692626953125t-1.039306640625,5.952392578125t-0.18896484375,5.574462890625q0,2.267578125,0.3779296875,5.291015625q0.251953125,2.015625,0.251953125,3.84228515625q0,0.94482421875-0.06298828125,1.82666015625q-0.18896484375,2.6455078125-1.417236328125,4.440673828125t-4.566650390625,1.795166015625q-1.259765625,0-3.1494140625-0.251953125t-2.51953125-1.70068359375q-1.44873046875-2.58251953125-2.20458984375-6.519287109375t-1.1337890625-8.12548828125t-0.44091796875-8.314453125t-0.06298828125-7.086181640625q0-2.07861328125-0.157470703125-4.188720703125z"/><path fill="#0e4a75" d="M246.833984375,95.8515625q0-0.396484375,0.2255859375-0.51953125t0.5673828125-0.123046875q0.560546875,0,0.8544921875,0.2119140625t0.2939453125,0.7451171875q0,0.642578125,0.095703125,1.6064453125t0.2802734375,1.873046875t0.4375,1.5654296875t0.5263671875,0.65625q0.505859375,0,0.8955078125-0.779296875t0.68359375-1.9140625t0.505859375-2.4404296875t0.2939453125-2.3310546875q0.0546875-0.560546875,0.2666015625-0.8134765625t0.7724609375-0.2529296875q0.642578125,0,0.9365234375,0.533203125t0.3759765625,1.3125q0.068359375,0.669921875,0.068359375,1.39453125l0,0.232421875l0,0.546875q0,0.51953125,0.013671875,0.9296875l0.396484375,8.380859375l0.0546875,1.39453125q0.02734375,0.19140625,0.041015625,0.3623046875t0.013671875,0.3623046875q0,0.779296875-0.3349609375,1.0048828125t-1.0869140625,0.2255859375q-0.1640625,0-0.4169921875-0.02734375t-0.4921875-0.109375t-0.41015625-0.2255859375t-0.1708984375-0.3623046875l0.0546875-0.13671875q0.068359375-0.8203125,0.068359375-1.72265625l0-0.287109375q-0.013671875-1.06640625-0.068359375-2.16015625t-0.123046875-2.1875t-0.068359375-2.10546875q-0.19140625,0.423828125-0.4443359375,0.875t-0.587890625,0.8134765625t-0.7587890625,0.6015625t-0.95703125,0.2392578125q-0.779296875,0-1.28515625-0.41015625t-0.7861328125-1.06640625t-0.4033203125-1.4697265625t-0.1640625-1.626953125t-0.0546875-1.5517578125t-0.109375-1.244140625z M258.23181640625,99.4609375q0-0.95703125,0.2119140625-2.255859375t0.7177734375-2.4609375t1.3330078125-1.9755859375t2.0849609375-0.8134765625q1.17578125,0,1.763671875,0.6767578125t0.587890625,1.8251953125q0,0.751953125-0.2802734375,1.6474609375t-0.7998046875,1.6953125t-1.23046875,1.3330078125t-1.5859375,0.533203125l-0.35546875-0.02734375q0,0.369140625,0.109375,0.9912109375t0.3212890625,1.2373046875t0.546875,1.080078125t0.8134765625,0.46484375q0.697265625,0,1.33984375-0.560546875t1.216796875-1.244140625t1.06640625-1.244140625t0.90234375-0.560546875q0.21875,0,0.451171875,0.068359375t0.259765625,0.3828125q0,0.19140625-0.1025390625,0.314453125t-0.1845703125,0.2734375q-0.423828125,0.724609375-0.9228515625,1.380859375t-1.1279296875,1.189453125t-1.3740234375,0.8408203125t-1.6474609375,0.3076171875q-1.17578125,0-1.955078125-0.4169921875t-1.2578125-1.12109375t-0.6904296875-1.626953125t-0.2119140625-1.9345703125z M260.67908203125,98.421875l0.3828125,0.341796875q0.2734375,0.24609375,0.546875,0.109375t0.4921875-0.4990234375t0.4033203125-0.8955078125t0.328125-1.09375t0.2119140625-1.09375t0.068359375-0.888671875l0-0.46484375t-0.041015625-0.4921875t-0.1435546875-0.3896484375t-0.3212890625-0.1982421875q-0.068359375-0.013671875-0.123046875-0.013671875q-0.46484375,0-0.79296875,0.587890625q-0.35546875,0.65625-0.57421875,1.5927734375t-0.314453125,1.9208984375t-0.123046875,1.4765625z M269.3835546875,99.16015625q0-0.779296875,0.1982421875-1.6064453125t0.62890625-1.490234375t1.0869140625-1.080078125t1.5859375-0.4169921875q0.697265625,0,1.4697265625,0.2392578125t1.4150390625,0.68359375t1.0458984375,1.0869140625t0.4033203125,1.435546875q0,0.95703125-0.3486328125,1.818359375t-0.9775390625,1.5380859375t-1.4697265625,1.06640625t-1.8251953125,0.3896484375q-0.806640625,0-1.408203125-0.2939453125t-1.0048828125-0.7861328125t-0.6015625-1.162109375t-0.1982421875-1.421875z M271.3933203125,99.1328125q0,0.24609375,0.0751953125,0.724609375t0.2255859375,0.9365234375t0.3896484375,0.79296875t0.5810546875,0.3076171875q0.724609375-0.08203125,1.1962890625-0.4716796875t0.765625-0.9501953125t0.41015625-1.216796875t0.1162109375-1.244140625q0-0.751953125-0.2939453125-1.2578125t-0.9638671875-0.8203125q0,0.02734375,0.02734375,0.02734375t0.02734375-0.02734375l-0.341796875-0.08203125q-0.13671875-0.0546875-0.3349609375-0.123046875t-0.3896484375-0.30078125q-0.533203125,0.19140625-0.8271484375,0.4921875t-0.4443359375,0.7314453125t-0.1845703125,1.0322265625t-0.0341796875,1.44921875z M279.75599609375,98.96875l0-0.396484375q0-0.4921875,0.02734375-0.9296875q0.02734375-0.615234375,0.02734375-1.01171875q0-0.21875,0.02734375-0.4990234375t0.13671875-0.4443359375q0.13671875-0.13671875,0.3212890625-0.2802734375t0.4033203125-0.1435546875q0.697265625,0,1.09375,0.1572265625t0.423828125,0.6494140625l0.0546875,0.423828125q0.24609375-0.587890625,0.65625-1.4560546875t0.9501953125-1.654296875t1.216796875-1.33984375t1.4287109375-0.5537109375q0.697265625,0,1.1484375,0.65625t0.7177734375,1.6748046875t0.3759765625,2.26953125t0.150390625,2.4541015625t0.0546875,2.1943359375t0.095703125,1.4970703125q0.0546875,0.423828125,0.1845703125,0.8955078125t0.1298828125,0.8681640625q0,0.109375-0.1572265625,0.2119140625t-0.3349609375,0.1708984375t-0.3623046875,0.109375t-0.2666015625,0.041015625q-0.533203125,0-0.7587890625-0.7998046875t-0.2802734375-2.0029296875t-0.0546875-2.6044921875t-0.095703125-2.6044921875t-0.3896484375-2.0029296875t-0.9365234375-0.8271484375q-0.587890625,0-1.216796875,0.7587890625t-1.080078125,2.0166015625q-0.4375,1.2578125-0.6015625,2.857421875q-0.0546875,0.505859375-0.0546875,1.01171875q0,1.107421875,0.232421875,2.21484375q0.02734375,0.19140625-0.1572265625,0.287109375t-0.4580078125,0.150390625t-0.5537109375,0.068359375t-0.4306640625,0.013671875q-0.533203125,0-0.8544921875-0.3759765625t-0.4990234375-0.9638671875t-0.2392578125-1.3193359375t-0.0751953125-1.4423828125z M292.17921875,98.421875q0-0.751953125,0.1435546875-1.6064453125t0.4921875-1.5654296875t0.9638671875-1.17578125t1.572265625-0.46484375q0.642578125,0,1.244140625,0.2119140625t1.134765625,0.5810546875q0.1640625-0.2734375,0.51953125-0.3349609375t0.62890625-0.0615234375q0.109375,0,0.3076171875,0.013671875t0.3896484375,0.08203125t0.3349609375,0.1640625t0.1708984375,0.2734375q0.109375,0.95703125,0.150390625,1.9072265625t0.123046875,1.8935546875q0.13671875,1.763671875,0.423828125,3.486328125t0.287109375,3.486328125q0,0.833984375-0.0751953125,1.8046875t-0.396484375,1.7978515625t-0.9365234375,1.3740234375t-1.708984375,0.546875q-0.984375,0-1.5107421875-0.3486328125t-0.9501953125-1.1689453125q0.02734375-0.2734375,0.3486328125-0.3623046875t0.5537109375-0.0888671875q0.21875,0,0.4443359375,0.041015625t0.3623046875,0.13671875l0.341796875,0.21875q0.505859375-1.0390625,0.615234375-2.26953125t0.109375-2.37890625q0-0.95703125-0.095703125-1.8935546875t-0.19140625-1.8798828125q-0.95703125,1.736328125-2.912109375,1.736328125q-0.90234375,0-1.4697265625-0.3828125t-0.875-0.970703125t-0.423828125-1.326171875t-0.1162109375-1.4765625z M293.860859375,98.544921875q0,0.341796875,0.02734375,0.8818359375t0.1435546875,1.0595703125t0.3349609375,0.8955078125t0.615234375,0.3759765625q0.751953125,0,1.189453125-0.587890625t0.6904296875-1.4013671875t0.4033203125-1.681640625t0.3828125-1.4287109375q-0.02734375-0.19140625-0.02734375-0.3759765625l0-0.3759765625q-0.314453125-0.587890625-0.916015625-1.0185546875t-1.244140625-0.5810546875q-0.08203125-0.013671875-0.150390625-0.013671875q-0.3828125,0-0.62890625,0.451171875q-0.314453125,0.546875-0.4921875,1.3056640625t-0.2529296875,1.4970703125t-0.0751953125,0.998046875z M303.86416015625,99.4609375q0-0.95703125,0.2119140625-2.255859375t0.7177734375-2.4609375t1.3330078125-1.9755859375t2.0849609375-0.8134765625q1.17578125,0,1.763671875,0.6767578125t0.587890625,1.8251953125q0,0.751953125-0.2802734375,1.6474609375t-0.7998046875,1.6953125t-1.23046875,1.3330078125t-1.5859375,0.533203125l-0.35546875-0.02734375q0,0.369140625,0.109375,0.9912109375t0.3212890625,1.2373046875t0.546875,1.080078125t0.8134765625,0.46484375q0.697265625,0,1.33984375-0.560546875t1.216796875-1.244140625t1.06640625-1.244140625t0.90234375-0.560546875q0.21875,0,0.451171875,0.068359375t0.259765625,0.3828125q0,0.19140625-0.1025390625,0.314453125t-0.1845703125,0.2734375q-0.423828125,0.724609375-0.9228515625,1.380859375t-1.1279296875,1.189453125t-1.3740234375,0.8408203125t-1.6474609375,0.3076171875q-1.17578125,0-1.955078125-0.4169921875t-1.2578125-1.12109375t-0.6904296875-1.626953125t-0.2119140625-1.9345703125z M306.31142578125,98.421875l0.3828125,0.341796875q0.2734375,0.24609375,0.546875,0.109375t0.4921875-0.4990234375t0.4033203125-0.8955078125t0.328125-1.09375t0.2119140625-1.09375t0.068359375-0.888671875l0-0.46484375t-0.041015625-0.4921875t-0.1435546875-0.3896484375t-0.3212890625-0.1982421875q-0.068359375-0.013671875-0.123046875-0.013671875q-0.46484375,0-0.79296875,0.587890625q-0.35546875,0.65625-0.57421875,1.5927734375t-0.314453125,1.9208984375t-0.123046875,1.4765625z M314.7287890625,97.697265625q0-0.2734375,0.0615234375-0.724609375t0.1435546875-0.8955078125t0.19140625-0.8271484375t0.259765625-0.4921875q0.109375-0.109375,0.3759765625-0.21875t0.560546875-0.1572265625t0.546875,0.041015625t0.3076171875,0.3623046875q-0.19140625,0.24609375-0.3486328125,0.8408203125t-0.2392578125,1.3193359375q-0.068359375,0.615234375-0.068359375,1.271484375l0,0.232421875q0.013671875,0.765625,0.13671875,1.408203125t0.3759765625,1.0595703125t0.7041015625,0.4169921875q0.95703125,0,1.75-0.8818359375t1.408203125-2.1533203125t1.080078125-2.7001953125t0.79296875-2.4951171875q0.08203125-0.314453125,0.3896484375-0.423828125t0.6630859375-0.0751953125t0.6357421875,0.1708984375t0.3349609375,0.328125q-0.2734375,2.296875-0.4306640625,4.59375t-0.1572265625,4.62109375q0,0.451171875,0.041015625,0.8271484375t-0.041015625,0.642578125t-0.3623046875,0.423828125t-0.8955078125,0.1572265625q-0.13671875,0-0.3486328125-0.02734375t-0.4375-0.0888671875t-0.3828125-0.1845703125t-0.1572265625-0.287109375q0-1.01171875,0.0751953125-2.078125t0.2119140625-2.064453125q-0.369140625,0.533203125-0.8134765625,1.0595703125t-0.9775390625,0.9501953125t-1.1484375,0.6767578125t-1.326171875,0.2529296875q-1.01171875,0-1.5927734375-0.478515625t-0.875-1.1962890625t-0.369140625-1.5654296875t-0.0751953125-1.640625z M327.60318359375,98.96875l0-0.396484375q0-0.4921875,0.02734375-0.9296875q0.02734375-0.615234375,0.02734375-1.01171875q0-0.21875,0.02734375-0.4990234375t0.13671875-0.4443359375q0.13671875-0.13671875,0.3212890625-0.2802734375t0.4033203125-0.1435546875q0.697265625,0,1.09375,0.1572265625t0.423828125,0.6494140625l0.0546875,0.423828125q0.24609375-0.587890625,0.65625-1.4560546875t0.9501953125-1.654296875t1.216796875-1.33984375t1.4287109375-0.5537109375q0.697265625,0,1.1484375,0.65625t0.7177734375,1.6748046875t0.3759765625,2.26953125t0.150390625,2.4541015625t0.0546875,2.1943359375t0.095703125,1.4970703125q0.0546875,0.423828125,0.1845703125,0.8955078125t0.1298828125,0.8681640625q0,0.109375-0.1572265625,0.2119140625t-0.3349609375,0.1708984375t-0.3623046875,0.109375t-0.2666015625,0.041015625q-0.533203125,0-0.7587890625-0.7998046875t-0.2802734375-2.0029296875t-0.0546875-2.6044921875t-0.095703125-2.6044921875t-0.3896484375-2.0029296875t-0.9365234375-0.8271484375q-0.587890625,0-1.216796875,0.7587890625t-1.080078125,2.0166015625q-0.4375,1.2578125-0.6015625,2.857421875q-0.0546875,0.505859375-0.0546875,1.01171875q0,1.107421875,0.232421875,2.21484375q0.02734375,0.19140625-0.1572265625,0.287109375t-0.4580078125,0.150390625t-0.5537109375,0.068359375t-0.4306640625,0.013671875q-0.533203125,0-0.8544921875-0.3759765625t-0.4990234375-0.9638671875t-0.2392578125-1.3193359375t-0.0751953125-1.4423828125z"/></svg>
